<mxfile host="app.diagrams.net" modified="2023-07-25T07:37:13.196Z" agent="Mozilla/5.0 (Windows NT 10.0; Win64; x64; rv:102.0) Gecko/20100101 Firefox/102.0" etag="eM93U9NQHtMmC3Wgbq_f" version="21.6.2" type="github">
  <diagram name="Seite-1" id="u-YqdmLqCyHfSkSiaF1u">
    <mxGraphModel dx="2349" dy="864" grid="1" gridSize="10" guides="1" tooltips="1" connect="1" arrows="1" fold="1" page="1" pageScale="1" pageWidth="1169" pageHeight="827" math="0" shadow="0">
      <root>
        <mxCell id="0" />
        <mxCell id="1" parent="0" />
        <mxCell id="8ivkcWKf1bzdHJcJOXwN-1" value="" style="rounded=0;whiteSpace=wrap;html=1;" parent="1" vertex="1">
          <mxGeometry x="40" y="40" width="380" height="300" as="geometry" />
        </mxCell>
        <mxCell id="8ivkcWKf1bzdHJcJOXwN-2" value="" style="rounded=0;whiteSpace=wrap;html=1;strokeColor=default;fillColor=default;gradientColor=none;perimeterSpacing=0;" parent="1" vertex="1">
          <mxGeometry x="50" y="40" width="167" height="101" as="geometry" />
        </mxCell>
        <mxCell id="8ivkcWKf1bzdHJcJOXwN-3" value="" style="rounded=0;whiteSpace=wrap;html=1;strokeColor=default;fillColor=default;gradientColor=none;perimeterSpacing=0;" parent="1" vertex="1">
          <mxGeometry x="230" y="40" width="167" height="101" as="geometry" />
        </mxCell>
        <mxCell id="8ivkcWKf1bzdHJcJOXwN-4" value="" style="rounded=0;whiteSpace=wrap;html=1;strokeColor=default;fillColor=default;gradientColor=none;perimeterSpacing=0;" parent="1" vertex="1">
          <mxGeometry x="230" y="143" width="167" height="101" as="geometry" />
        </mxCell>
        <mxCell id="8ivkcWKf1bzdHJcJOXwN-5" value="" style="rounded=0;whiteSpace=wrap;html=1;strokeColor=default;fillColor=default;gradientColor=none;perimeterSpacing=0;" parent="1" vertex="1">
          <mxGeometry x="50" y="143" width="167" height="101" as="geometry" />
        </mxCell>
        <mxCell id="8ivkcWKf1bzdHJcJOXwN-6" value="" style="rounded=0;whiteSpace=wrap;html=1;strokeColor=default;fillColor=default;gradientColor=none;perimeterSpacing=0;" parent="1" vertex="1">
          <mxGeometry x="50" y="246" width="167" height="101" as="geometry" />
        </mxCell>
        <mxCell id="8ivkcWKf1bzdHJcJOXwN-8" value="" style="rounded=0;whiteSpace=wrap;html=1;strokeColor=default;fillColor=default;gradientColor=none;perimeterSpacing=0;" parent="1" vertex="1">
          <mxGeometry x="230" y="246" width="167" height="101" as="geometry" />
        </mxCell>
        <mxCell id="8ivkcWKf1bzdHJcJOXwN-10" value="" style="rounded=0;whiteSpace=wrap;html=1;" parent="1" vertex="1">
          <mxGeometry x="80" y="141" width="10" height="2" as="geometry" />
        </mxCell>
        <mxCell id="8ivkcWKf1bzdHJcJOXwN-11" value="" style="rounded=0;whiteSpace=wrap;html=1;" parent="1" vertex="1">
          <mxGeometry x="180" y="141" width="10" height="2" as="geometry" />
        </mxCell>
        <mxCell id="8ivkcWKf1bzdHJcJOXwN-12" value="" style="rounded=0;whiteSpace=wrap;html=1;" parent="1" vertex="1">
          <mxGeometry x="80" y="244" width="10" height="2" as="geometry" />
        </mxCell>
        <mxCell id="8ivkcWKf1bzdHJcJOXwN-13" value="" style="rounded=0;whiteSpace=wrap;html=1;" parent="1" vertex="1">
          <mxGeometry x="180" y="244" width="10" height="2" as="geometry" />
        </mxCell>
        <mxCell id="8ivkcWKf1bzdHJcJOXwN-14" value="" style="rounded=0;whiteSpace=wrap;html=1;" parent="1" vertex="1">
          <mxGeometry x="253" y="141" width="10" height="2" as="geometry" />
        </mxCell>
        <mxCell id="8ivkcWKf1bzdHJcJOXwN-15" value="" style="rounded=0;whiteSpace=wrap;html=1;" parent="1" vertex="1">
          <mxGeometry x="353" y="141" width="10" height="2" as="geometry" />
        </mxCell>
        <mxCell id="8ivkcWKf1bzdHJcJOXwN-16" value="" style="rounded=0;whiteSpace=wrap;html=1;" parent="1" vertex="1">
          <mxGeometry x="253" y="244" width="10" height="2" as="geometry" />
        </mxCell>
        <mxCell id="8ivkcWKf1bzdHJcJOXwN-17" value="" style="rounded=0;whiteSpace=wrap;html=1;" parent="1" vertex="1">
          <mxGeometry x="353" y="244" width="10" height="2" as="geometry" />
        </mxCell>
        <mxCell id="OTq30tLeoBPAQEDGAb5Y-8" value="" style="shape=manualInput;whiteSpace=wrap;html=1;size=165;rotation=90;flipV=1;" parent="1" vertex="1">
          <mxGeometry x="400" y="244" width="370" height="720" as="geometry" />
        </mxCell>
        <mxCell id="OTq30tLeoBPAQEDGAb5Y-11" value="" style="rounded=0;whiteSpace=wrap;html=1;strokeColor=default;fillColor=default;gradientColor=none;perimeterSpacing=0;" parent="1" vertex="1">
          <mxGeometry x="977" y="40" width="167" height="101" as="geometry" />
        </mxCell>
        <mxCell id="OTq30tLeoBPAQEDGAb5Y-12" value="" style="rounded=0;whiteSpace=wrap;html=1;strokeColor=default;fillColor=default;gradientColor=none;perimeterSpacing=0;" parent="1" vertex="1">
          <mxGeometry x="977" y="143" width="167" height="101" as="geometry" />
        </mxCell>
        <mxCell id="OTq30tLeoBPAQEDGAb5Y-13" value="" style="rounded=0;whiteSpace=wrap;html=1;strokeColor=default;fillColor=default;gradientColor=none;perimeterSpacing=0;" parent="1" vertex="1">
          <mxGeometry x="977" y="246" width="167" height="101" as="geometry" />
        </mxCell>
        <mxCell id="OTq30tLeoBPAQEDGAb5Y-14" value="" style="rounded=0;whiteSpace=wrap;html=1;" parent="1" vertex="1">
          <mxGeometry x="1000" y="141" width="10" height="2" as="geometry" />
        </mxCell>
        <mxCell id="OTq30tLeoBPAQEDGAb5Y-15" value="" style="rounded=0;whiteSpace=wrap;html=1;" parent="1" vertex="1">
          <mxGeometry x="1100" y="141" width="10" height="2" as="geometry" />
        </mxCell>
        <mxCell id="OTq30tLeoBPAQEDGAb5Y-16" value="" style="rounded=0;whiteSpace=wrap;html=1;" parent="1" vertex="1">
          <mxGeometry x="1000" y="244" width="10" height="2" as="geometry" />
        </mxCell>
        <mxCell id="OTq30tLeoBPAQEDGAb5Y-17" value="" style="rounded=0;whiteSpace=wrap;html=1;" parent="1" vertex="1">
          <mxGeometry x="1100" y="244" width="10" height="2" as="geometry" />
        </mxCell>
        <mxCell id="OTq30tLeoBPAQEDGAb5Y-18" value="" style="rounded=0;whiteSpace=wrap;html=1;strokeColor=default;fillColor=default;gradientColor=none;perimeterSpacing=0;" parent="1" vertex="1">
          <mxGeometry x="802" y="40" width="167" height="101" as="geometry" />
        </mxCell>
        <mxCell id="OTq30tLeoBPAQEDGAb5Y-19" value="" style="rounded=0;whiteSpace=wrap;html=1;strokeColor=default;fillColor=default;gradientColor=none;perimeterSpacing=0;" parent="1" vertex="1">
          <mxGeometry x="802" y="143" width="167" height="101" as="geometry" />
        </mxCell>
        <mxCell id="OTq30tLeoBPAQEDGAb5Y-20" value="" style="rounded=0;whiteSpace=wrap;html=1;strokeColor=default;fillColor=default;gradientColor=none;perimeterSpacing=0;" parent="1" vertex="1">
          <mxGeometry x="802" y="246" width="167" height="101" as="geometry" />
        </mxCell>
        <mxCell id="OTq30tLeoBPAQEDGAb5Y-21" value="" style="rounded=0;whiteSpace=wrap;html=1;" parent="1" vertex="1">
          <mxGeometry x="825" y="141" width="10" height="2" as="geometry" />
        </mxCell>
        <mxCell id="OTq30tLeoBPAQEDGAb5Y-22" value="" style="rounded=0;whiteSpace=wrap;html=1;" parent="1" vertex="1">
          <mxGeometry x="925" y="141" width="10" height="2" as="geometry" />
        </mxCell>
        <mxCell id="OTq30tLeoBPAQEDGAb5Y-23" value="" style="rounded=0;whiteSpace=wrap;html=1;" parent="1" vertex="1">
          <mxGeometry x="825" y="244" width="10" height="2" as="geometry" />
        </mxCell>
        <mxCell id="OTq30tLeoBPAQEDGAb5Y-24" value="" style="rounded=0;whiteSpace=wrap;html=1;" parent="1" vertex="1">
          <mxGeometry x="925" y="244" width="10" height="2" as="geometry" />
        </mxCell>
        <mxCell id="OTq30tLeoBPAQEDGAb5Y-25" value="" style="rounded=0;whiteSpace=wrap;html=1;strokeColor=default;fillColor=default;gradientColor=none;perimeterSpacing=0;" parent="1" vertex="1">
          <mxGeometry x="627" y="40" width="167" height="101" as="geometry" />
        </mxCell>
        <mxCell id="OTq30tLeoBPAQEDGAb5Y-26" value="" style="rounded=0;whiteSpace=wrap;html=1;strokeColor=default;fillColor=default;gradientColor=none;perimeterSpacing=0;" parent="1" vertex="1">
          <mxGeometry x="627" y="143" width="167" height="101" as="geometry" />
        </mxCell>
        <mxCell id="OTq30tLeoBPAQEDGAb5Y-27" value="" style="rounded=0;whiteSpace=wrap;html=1;strokeColor=default;fillColor=default;gradientColor=none;perimeterSpacing=0;" parent="1" vertex="1">
          <mxGeometry x="627" y="246" width="167" height="101" as="geometry" />
        </mxCell>
        <mxCell id="OTq30tLeoBPAQEDGAb5Y-28" value="" style="rounded=0;whiteSpace=wrap;html=1;" parent="1" vertex="1">
          <mxGeometry x="650" y="141" width="10" height="2" as="geometry" />
        </mxCell>
        <mxCell id="OTq30tLeoBPAQEDGAb5Y-29" value="" style="rounded=0;whiteSpace=wrap;html=1;" parent="1" vertex="1">
          <mxGeometry x="750" y="141" width="10" height="2" as="geometry" />
        </mxCell>
        <mxCell id="OTq30tLeoBPAQEDGAb5Y-30" value="" style="rounded=0;whiteSpace=wrap;html=1;" parent="1" vertex="1">
          <mxGeometry x="650" y="244" width="10" height="2" as="geometry" />
        </mxCell>
        <mxCell id="OTq30tLeoBPAQEDGAb5Y-31" value="" style="rounded=0;whiteSpace=wrap;html=1;" parent="1" vertex="1">
          <mxGeometry x="750" y="244" width="10" height="2" as="geometry" />
        </mxCell>
        <mxCell id="OTq30tLeoBPAQEDGAb5Y-32" value="" style="rounded=0;whiteSpace=wrap;html=1;strokeColor=default;fillColor=default;gradientColor=none;perimeterSpacing=0;" parent="1" vertex="1">
          <mxGeometry x="450" y="40" width="167" height="101" as="geometry" />
        </mxCell>
        <mxCell id="OTq30tLeoBPAQEDGAb5Y-33" value="" style="rounded=0;whiteSpace=wrap;html=1;strokeColor=default;fillColor=default;gradientColor=none;perimeterSpacing=0;" parent="1" vertex="1">
          <mxGeometry x="450" y="143" width="167" height="101" as="geometry" />
        </mxCell>
        <mxCell id="OTq30tLeoBPAQEDGAb5Y-34" value="" style="rounded=0;whiteSpace=wrap;html=1;strokeColor=default;fillColor=default;gradientColor=none;perimeterSpacing=0;" parent="1" vertex="1">
          <mxGeometry x="450" y="246" width="167" height="101" as="geometry" />
        </mxCell>
        <mxCell id="OTq30tLeoBPAQEDGAb5Y-35" value="" style="rounded=0;whiteSpace=wrap;html=1;" parent="1" vertex="1">
          <mxGeometry x="473" y="141" width="10" height="2" as="geometry" />
        </mxCell>
        <mxCell id="OTq30tLeoBPAQEDGAb5Y-36" value="" style="rounded=0;whiteSpace=wrap;html=1;" parent="1" vertex="1">
          <mxGeometry x="573" y="141" width="10" height="2" as="geometry" />
        </mxCell>
        <mxCell id="OTq30tLeoBPAQEDGAb5Y-37" value="" style="rounded=0;whiteSpace=wrap;html=1;" parent="1" vertex="1">
          <mxGeometry x="473" y="244" width="10" height="2" as="geometry" />
        </mxCell>
        <mxCell id="OTq30tLeoBPAQEDGAb5Y-38" value="" style="rounded=0;whiteSpace=wrap;html=1;" parent="1" vertex="1">
          <mxGeometry x="573" y="244" width="10" height="2" as="geometry" />
        </mxCell>
        <mxCell id="OTq30tLeoBPAQEDGAb5Y-39" value="" style="rounded=0;whiteSpace=wrap;html=1;strokeColor=default;fillColor=default;gradientColor=none;perimeterSpacing=0;rotation=90;" parent="1" vertex="1">
          <mxGeometry x="802" y="637.5" width="167" height="101" as="geometry" />
        </mxCell>
        <mxCell id="OTq30tLeoBPAQEDGAb5Y-40" value="" style="rounded=0;whiteSpace=wrap;html=1;strokeColor=default;fillColor=default;gradientColor=none;perimeterSpacing=0;rotation=90;" parent="1" vertex="1">
          <mxGeometry x="802" y="468.5" width="167" height="101" as="geometry" />
        </mxCell>
        <mxCell id="OTq30tLeoBPAQEDGAb5Y-41" value="" style="rounded=0;whiteSpace=wrap;html=1;strokeColor=default;fillColor=default;gradientColor=none;perimeterSpacing=0;rotation=90;" parent="1" vertex="1">
          <mxGeometry x="699" y="637.5" width="167" height="101" as="geometry" />
        </mxCell>
        <mxCell id="OTq30tLeoBPAQEDGAb5Y-42" value="" style="rounded=0;whiteSpace=wrap;html=1;strokeColor=default;fillColor=default;gradientColor=none;perimeterSpacing=0;rotation=90;" parent="1" vertex="1">
          <mxGeometry x="699" y="468.5" width="167" height="101" as="geometry" />
        </mxCell>
        <mxCell id="OTq30tLeoBPAQEDGAb5Y-43" value="" style="rounded=0;whiteSpace=wrap;html=1;strokeColor=default;fillColor=default;gradientColor=none;perimeterSpacing=0;rotation=90;" parent="1" vertex="1">
          <mxGeometry x="596" y="637.5" width="167" height="101" as="geometry" />
        </mxCell>
        <mxCell id="OTq30tLeoBPAQEDGAb5Y-44" value="" style="rounded=0;whiteSpace=wrap;html=1;strokeColor=default;fillColor=default;gradientColor=none;perimeterSpacing=0;rotation=90;" parent="1" vertex="1">
          <mxGeometry x="596" y="468.5" width="167" height="101" as="geometry" />
        </mxCell>
        <mxCell id="OTq30tLeoBPAQEDGAb5Y-45" value="" style="rounded=0;whiteSpace=wrap;html=1;strokeColor=default;fillColor=default;gradientColor=none;perimeterSpacing=0;rotation=90;" parent="1" vertex="1">
          <mxGeometry x="493" y="637.5" width="167" height="101" as="geometry" />
        </mxCell>
        <mxCell id="OTq30tLeoBPAQEDGAb5Y-46" value="" style="rounded=0;whiteSpace=wrap;html=1;strokeColor=default;fillColor=default;gradientColor=none;perimeterSpacing=0;rotation=90;" parent="1" vertex="1">
          <mxGeometry x="493" y="468.5" width="167" height="101" as="geometry" />
        </mxCell>
        <mxCell id="OTq30tLeoBPAQEDGAb5Y-47" value="" style="rounded=0;whiteSpace=wrap;html=1;strokeColor=default;fillColor=default;gradientColor=none;perimeterSpacing=0;rotation=90;" parent="1" vertex="1">
          <mxGeometry x="390" y="637.5" width="167" height="101" as="geometry" />
        </mxCell>
        <mxCell id="OTq30tLeoBPAQEDGAb5Y-48" value="" style="rounded=0;whiteSpace=wrap;html=1;strokeColor=default;fillColor=default;gradientColor=none;perimeterSpacing=0;rotation=90;" parent="1" vertex="1">
          <mxGeometry x="390" y="468.5" width="167" height="101" as="geometry" />
        </mxCell>
        <mxCell id="2jCN0nGERuDI4R31hwaW-1" value="" style="rounded=0;whiteSpace=wrap;html=1;rotation=90;" vertex="1" parent="1">
          <mxGeometry x="829" y="450" width="10" height="2" as="geometry" />
        </mxCell>
        <mxCell id="2jCN0nGERuDI4R31hwaW-2" value="" style="rounded=0;whiteSpace=wrap;html=1;rotation=0;" vertex="1" parent="1">
          <mxGeometry x="915" y="603" width="10" height="2" as="geometry" />
        </mxCell>
        <mxCell id="2jCN0nGERuDI4R31hwaW-3" value="" style="rounded=0;whiteSpace=wrap;html=1;strokeColor=default;fillColor=default;gradientColor=none;perimeterSpacing=0;rotation=90;" vertex="1" parent="1">
          <mxGeometry x="287" y="637.5" width="167" height="101" as="geometry" />
        </mxCell>
      </root>
    </mxGraphModel>
  </diagram>
</mxfile>
